<svg width="184" height="180" viewBox="0 0 184 180" fill="none" xmlns="http://www.w3.org/2000/svg">
<rect width="184" height="179.377" rx="89.6886" fill="#404040"/>
<path d="M86.6524 141.633C85.1206 142.399 83.2058 143.22 80.9081 144.095C78.6104 144.97 75.9845 145.736 73.0303 146.393C70.1856 147.049 67.2314 147.377 64.1678 147.377C60.4477 147.377 57.0011 146.721 53.8281 145.408C50.6551 144.095 48.0839 142.016 46.1144 139.171C44.2544 136.217 43.3244 132.442 43.3244 127.847V74.1792H32V60.2289H43.3244V32H61.3777V60.2289H80.0875V74.1792H61.3777V122.103C61.5965 125.057 62.5266 127.245 64.1678 128.667C65.9184 130.09 68.052 130.801 70.5685 130.801C73.085 130.801 75.4921 130.363 77.7898 129.488C80.0875 128.613 81.7835 127.902 82.8776 127.354L86.6524 141.633Z" fill="#F5F5F5"/>
<path d="M70.2676 114.115C70.2676 108.645 71.7994 103.885 74.863 99.8368C78.036 95.6791 82.3579 92.506 87.8286 90.3178C93.2993 88.0201 99.6453 86.8712 106.867 86.8712C110.696 86.8712 114.58 87.1448 118.519 87.6918C122.568 88.2389 126.124 89.1142 129.187 90.3178V84.9018C129.187 78.884 127.382 74.1792 123.771 70.7873C120.16 67.3955 114.963 65.6996 108.18 65.6996C103.365 65.6996 98.8247 66.5749 94.5576 68.3255C90.2904 69.9667 85.7497 72.3191 80.9355 75.3827L74.863 63.2378C80.5525 59.4083 86.2421 56.5635 91.9316 54.7034C97.7306 52.8434 103.803 51.9134 110.149 51.9134C121.638 51.9134 130.664 54.977 137.229 61.1042C143.903 67.122 147.24 75.711 147.24 86.8712V118.875C147.24 120.954 147.569 122.431 148.225 123.306C148.991 124.181 150.249 124.674 152 124.783V139.226C150.359 139.554 148.882 139.773 147.569 139.882C146.256 139.992 145.162 140.047 144.286 140.047C140.457 140.047 137.557 139.116 135.588 137.256C133.618 135.396 132.47 133.208 132.141 130.692L131.649 125.768C127.929 130.582 123.169 134.302 117.37 136.928C111.571 139.554 105.718 140.867 99.8094 140.867C94.1199 140.867 89.0321 139.718 84.5462 137.421C80.0602 135.013 76.5589 131.786 74.0424 127.737C71.5259 123.689 70.2676 119.148 70.2676 114.115ZM124.92 119.367C126.233 117.945 127.272 116.522 128.038 115.1C128.804 113.678 129.187 112.419 129.187 111.325V101.478C126.124 100.274 122.896 99.3991 119.504 98.8521C116.112 98.1956 112.775 97.8673 109.493 97.8673C102.928 97.8673 97.5664 99.1803 93.4087 101.806C89.3604 104.432 87.3362 108.043 87.3362 112.638C87.3362 115.155 87.9927 117.562 89.3057 119.86C90.7281 122.157 92.6975 124.017 95.214 125.44C97.84 126.862 101.068 127.573 104.897 127.573C108.836 127.573 112.611 126.807 116.222 125.276C119.832 123.744 122.732 121.774 124.92 119.367Z" fill="#F5F5F5"/>
</svg>
