<svg width="1920" height="1080" viewBox="0 0 1920 1080" fill="none" xmlns="http://www.w3.org/2000/svg">
    <style>
        @media (prefers-color-scheme: dark) {
            .logo {
                fill: #F5F5F5;
            }
            .background {
                fill: #404040;
            }
        }
    </style>
    <rect class="background" width="1920" height="1080" fill="#F5F5F5"/>
    <path class="logo"
          d="M236.142 623.588C233.753 624.783 230.766 626.063 227.182 627.428C223.598 628.793 219.502 629.988 214.894 631.012C210.457 632.036 205.849 632.548 201.07 632.548C195.267 632.548 189.891 631.524 184.942 629.476C179.993 627.428 175.982 624.185 172.91 619.748C170.009 615.14 168.558 609.252 168.558 602.084V518.372H150.894V496.612H168.558V452.58H196.718V496.612H225.902V518.372H196.718V593.124C197.059 597.732 198.51 601.145 201.07 603.364C203.801 605.583 207.129 606.692 211.054 606.692C214.979 606.692 218.734 606.009 222.318 604.644C225.902 603.279 228.547 602.169 230.254 601.316L236.142 623.588ZM245.918 591.332C245.918 582.799 248.307 575.375 253.086 569.06C258.035 562.575 264.777 557.625 273.31 554.212C281.843 550.628 291.742 548.836 303.006 548.836C308.979 548.836 315.038 549.263 321.182 550.116C327.497 550.969 333.043 552.335 337.822 554.212V545.764C337.822 536.377 335.006 529.039 329.374 523.748C323.742 518.457 315.635 515.812 305.054 515.812C297.545 515.812 290.462 517.177 283.806 519.908C277.15 522.468 270.067 526.137 262.558 530.916L253.086 511.972C261.961 505.999 270.835 501.561 279.71 498.66C288.755 495.759 298.227 494.308 308.126 494.308C326.046 494.308 340.126 499.087 350.366 508.644C360.777 518.031 365.982 531.428 365.982 548.836V598.756C365.982 601.999 366.494 604.303 367.518 605.668C368.713 607.033 370.675 607.801 373.406 607.972V630.5C370.846 631.012 368.542 631.353 366.494 631.524C364.446 631.695 362.739 631.78 361.374 631.78C355.401 631.78 350.878 630.329 347.806 627.428C344.734 624.527 342.942 621.113 342.43 617.188L341.662 609.508C335.859 617.017 328.435 622.82 319.39 626.916C310.345 631.012 301.214 633.06 291.998 633.06C283.123 633.06 275.187 631.268 268.19 627.684C261.193 623.929 255.731 618.895 251.806 612.58C247.881 606.265 245.918 599.183 245.918 591.332ZM331.166 599.524C333.214 597.305 334.835 595.087 336.03 592.868C337.225 590.649 337.822 588.687 337.822 586.98V571.62C333.043 569.743 328.009 568.377 322.718 567.524C317.427 566.5 312.222 565.988 307.102 565.988C296.862 565.988 288.499 568.036 282.014 572.132C275.699 576.228 272.542 581.86 272.542 589.028C272.542 592.953 273.566 596.708 275.614 600.292C277.833 603.876 280.905 606.777 284.83 608.996C288.926 611.215 293.961 612.324 299.934 612.324C306.078 612.324 311.966 611.129 317.598 608.74C323.23 606.351 327.753 603.279 331.166 599.524ZM473.642 623.588C471.253 624.783 468.266 626.063 464.682 627.428C461.098 628.793 457.002 629.988 452.394 631.012C447.957 632.036 443.349 632.548 438.57 632.548C432.767 632.548 427.391 631.524 422.442 629.476C417.493 627.428 413.482 624.185 410.41 619.748C407.509 615.14 406.058 609.252 406.058 602.084V518.372H388.394V496.612H406.058V452.58H434.218V496.612H463.402V518.372H434.218V593.124C434.559 597.732 436.01 601.145 438.57 603.364C441.301 605.583 444.629 606.692 448.554 606.692C452.479 606.692 456.234 606.009 459.818 604.644C463.402 603.279 466.047 602.169 467.754 601.316L473.642 623.588ZM540.762 633.06C529.498 633.06 518.831 631.268 508.762 627.684C498.693 623.929 490.074 618.383 482.906 611.044L493.402 592.1C501.082 598.927 508.762 603.876 516.442 606.948C524.293 610.02 532.058 611.556 539.738 611.556C547.589 611.556 553.989 610.105 558.938 607.204C563.887 604.132 566.362 599.695 566.362 593.892C566.362 589.625 565.082 586.468 562.522 584.42C559.962 582.372 556.207 580.58 551.258 579.044C546.479 577.508 540.677 575.801 533.85 573.924C524.293 571.023 516.271 568.036 509.786 564.964C503.301 561.721 498.437 557.796 495.194 553.188C491.951 548.58 490.33 542.692 490.33 535.524C490.33 526.82 492.549 519.396 496.986 513.252C501.423 507.108 507.567 502.415 515.418 499.172C523.439 495.929 532.655 494.308 543.066 494.308C552.794 494.308 561.754 495.844 569.946 498.916C578.309 501.817 585.647 506.425 591.962 512.74L579.93 531.428C573.957 525.967 567.813 521.956 561.498 519.396C555.354 516.836 548.698 515.556 541.53 515.556C537.434 515.556 533.509 516.068 529.754 517.092C525.999 517.945 522.842 519.652 520.282 522.212C517.893 524.601 516.698 528.015 516.698 532.452C516.698 536.036 517.722 538.937 519.77 541.156C521.818 543.375 524.89 545.252 528.986 546.788C533.082 548.324 538.117 550.031 544.09 551.908C554.501 554.98 563.375 558.052 570.714 561.124C578.053 564.025 583.685 567.865 587.61 572.644C591.706 577.252 593.754 583.652 593.754 591.844C593.754 604.815 588.89 614.969 579.162 622.308C569.605 629.476 556.805 633.06 540.762 633.06ZM617.616 578.532V496.612H645.776V572.9C645.776 584.847 647.909 593.892 652.176 600.036C656.613 606.009 663.013 608.996 671.376 608.996C676.667 608.996 681.787 607.887 686.736 605.668C691.856 603.449 696.464 600.207 700.56 595.94C704.827 591.503 708.24 586.212 710.8 580.068V496.612H738.96V598.756C738.96 601.999 739.557 604.303 740.752 605.668C741.947 607.033 743.909 607.801 746.64 607.972V630.5C743.739 631.012 741.349 631.353 739.472 631.524C737.595 631.695 735.803 631.78 734.096 631.78C728.976 631.78 724.709 630.415 721.296 627.684C717.883 624.783 715.92 621.113 715.408 616.676L714.896 603.364C708.923 613.092 701.157 620.516 691.6 625.636C682.043 630.585 671.547 633.06 660.112 633.06C646.117 633.06 635.536 628.452 628.368 619.236C621.2 610.02 617.616 596.452 617.616 578.532ZM849.142 623.588C846.753 624.783 843.766 626.063 840.182 627.428C836.598 628.793 832.502 629.988 827.894 631.012C823.457 632.036 818.849 632.548 814.07 632.548C808.267 632.548 802.891 631.524 797.942 629.476C792.993 627.428 788.982 624.185 785.91 619.748C783.009 615.14 781.558 609.252 781.558 602.084V518.372H763.894V496.612H781.558V452.58H809.718V496.612H838.902V518.372H809.718V593.124C810.059 597.732 811.51 601.145 814.07 603.364C816.801 605.583 820.129 606.692 824.054 606.692C827.979 606.692 831.734 606.009 835.318 604.644C838.902 603.279 841.547 602.169 843.254 601.316L849.142 623.588ZM858.918 591.332C858.918 582.799 861.307 575.375 866.086 569.06C871.035 562.575 877.777 557.625 886.31 554.212C894.843 550.628 904.742 548.836 916.006 548.836C921.979 548.836 928.038 549.263 934.182 550.116C940.497 550.969 946.043 552.335 950.822 554.212V545.764C950.822 536.377 948.006 529.039 942.374 523.748C936.742 518.457 928.635 515.812 918.054 515.812C910.545 515.812 903.462 517.177 896.806 519.908C890.15 522.468 883.067 526.137 875.558 530.916L866.086 511.972C874.961 505.999 883.835 501.561 892.71 498.66C901.755 495.759 911.227 494.308 921.126 494.308C939.046 494.308 953.126 499.087 963.366 508.644C973.777 518.031 978.982 531.428 978.982 548.836V598.756C978.982 601.999 979.494 604.303 980.518 605.668C981.713 607.033 983.675 607.801 986.406 607.972V630.5C983.846 631.012 981.542 631.353 979.494 631.524C977.446 631.695 975.739 631.78 974.374 631.78C968.401 631.78 963.878 630.329 960.806 627.428C957.734 624.527 955.942 621.113 955.43 617.188L954.662 609.508C948.859 617.017 941.435 622.82 932.39 626.916C923.345 631.012 914.214 633.06 904.998 633.06C896.123 633.06 888.187 631.268 881.19 627.684C874.193 623.929 868.731 618.895 864.806 612.58C860.881 606.265 858.918 599.183 858.918 591.332ZM944.166 599.524C946.214 597.305 947.835 595.087 949.03 592.868C950.225 590.649 950.822 588.687 950.822 586.98V571.62C946.043 569.743 941.009 568.377 935.718 567.524C930.427 566.5 925.222 565.988 920.102 565.988C909.862 565.988 901.499 568.036 895.014 572.132C888.699 576.228 885.542 581.86 885.542 589.028C885.542 592.953 886.566 596.708 888.614 600.292C890.833 603.876 893.905 606.777 897.83 608.996C901.926 611.215 906.961 612.324 912.934 612.324C919.078 612.324 924.966 611.129 930.598 608.74C936.23 606.351 940.753 603.279 944.166 599.524ZM1106.33 630.5L1063.32 568.804L1041.31 589.796V630.5H1013.15V443.62H1041.31V561.38L1103.26 496.868H1133.47L1081.5 552.932L1136.28 630.5H1106.33ZM1207.07 633.06C1196.66 633.06 1187.19 631.268 1178.65 627.684C1170.29 623.929 1163.04 618.895 1156.89 612.58C1150.75 606.095 1145.97 598.756 1142.56 590.564C1139.31 582.201 1137.69 573.327 1137.69 563.94C1137.69 551.311 1140.59 539.791 1146.4 529.38C1152.2 518.799 1160.31 510.351 1170.72 504.036C1181.13 497.551 1193.33 494.308 1207.32 494.308C1221.32 494.308 1233.35 497.551 1243.42 504.036C1253.66 510.351 1261.6 518.713 1267.23 529.124C1272.86 539.535 1275.68 550.713 1275.68 562.66C1275.68 564.708 1275.59 566.671 1275.42 568.548C1275.25 570.255 1275.08 571.705 1274.91 572.9H1167.64C1168.16 580.751 1170.29 587.663 1174.04 593.636C1177.97 599.439 1182.92 604.047 1188.89 607.46C1194.87 610.703 1201.27 612.324 1208.09 612.324C1215.6 612.324 1222.68 610.447 1229.34 606.692C1236.17 602.937 1240.77 597.988 1243.16 591.844L1267.23 598.756C1264.33 605.241 1259.89 611.129 1253.92 616.42C1248.11 621.54 1241.2 625.636 1233.18 628.708C1225.16 631.609 1216.45 633.06 1207.07 633.06ZM1166.88 554.212H1247.77C1247.26 546.532 1245.04 539.791 1241.12 533.988C1237.36 528.015 1232.5 523.407 1226.52 520.164C1220.72 516.751 1214.24 515.044 1207.07 515.044C1200.07 515.044 1193.59 516.751 1187.61 520.164C1181.81 523.407 1177.03 528.015 1173.28 533.988C1169.52 539.791 1167.39 546.532 1166.88 554.212ZM1298.65 630.5V496.612H1326.81V630.5H1298.65ZM1298.65 474.596V443.62H1326.81V474.596H1298.65ZM1480.71 630.5H1452.55V555.492C1452.55 543.033 1450.5 533.903 1446.41 528.1C1442.48 522.297 1436.59 519.396 1428.74 519.396C1423.28 519.396 1417.82 520.761 1412.36 523.492C1407.07 526.223 1402.29 529.977 1398.02 534.756C1393.76 539.364 1390.68 544.74 1388.81 550.884V630.5H1360.65V496.612H1386.25V523.492C1389.66 517.519 1394.1 512.399 1399.56 508.132C1405.19 503.695 1411.5 500.281 1418.5 497.892C1425.5 495.503 1432.92 494.308 1440.77 494.308C1448.8 494.308 1455.37 495.759 1460.49 498.66C1465.78 501.561 1469.87 505.572 1472.77 510.692C1475.85 515.641 1477.89 521.444 1478.92 528.1C1480.11 534.585 1480.71 541.497 1480.71 548.836V630.5ZM1512.12 630.5V597.732H1535.41V630.5H1512.12ZM1553.82 679.396C1547.67 679.396 1541.87 678.457 1536.41 676.58C1530.78 674.703 1525.83 671.801 1521.56 667.876L1534.1 648.932C1536.15 650.98 1538.71 652.431 1541.78 653.284C1544.69 654.308 1547.59 654.82 1550.49 654.82C1553.9 654.82 1556.97 653.967 1559.7 652.26C1562.61 650.553 1564.91 648.164 1566.62 645.092C1568.49 642.191 1569.43 638.948 1569.43 635.364V496.612H1597.59V633.316C1597.59 642.191 1595.54 650.127 1591.45 657.124C1587.52 664.121 1582.23 669.583 1575.58 673.508C1569.09 677.433 1561.84 679.396 1553.82 679.396ZM1569.43 474.596V443.62H1597.59V474.596H1569.43ZM1707.43 633.06C1696.68 633.06 1687.2 630.5 1679.01 625.38C1670.82 620.26 1664.33 613.604 1659.56 605.412V685.028H1631.4V496.612H1656.23V520.676C1661.35 512.655 1668 506.255 1676.2 501.476C1684.39 496.697 1693.52 494.308 1703.59 494.308C1712.8 494.308 1721.25 496.185 1728.93 499.94C1736.61 503.524 1743.27 508.559 1748.9 515.044C1754.53 521.529 1758.88 528.953 1761.96 537.316C1765.2 545.508 1766.82 554.212 1766.82 563.428C1766.82 576.228 1764.26 587.919 1759.14 598.5C1754.19 609.081 1747.19 617.529 1738.15 623.844C1729.27 629.988 1719.03 633.06 1707.43 633.06ZM1698.21 608.996C1704.19 608.996 1709.56 607.716 1714.34 605.156C1719.29 602.596 1723.47 599.183 1726.88 594.916C1730.47 590.649 1733.2 585.785 1735.08 580.324C1736.95 574.863 1737.89 569.231 1737.89 563.428C1737.89 557.284 1736.87 551.481 1734.82 546.02C1732.77 540.559 1729.79 535.78 1725.86 531.684C1722.11 527.588 1717.67 524.345 1712.55 521.956C1707.6 519.567 1702.14 518.372 1696.16 518.372C1692.58 518.372 1688.83 519.055 1684.9 520.42C1680.97 521.785 1677.31 523.663 1673.89 526.052C1670.48 528.441 1667.49 531.257 1664.93 534.5C1662.37 537.743 1660.58 541.156 1659.56 544.74V579.812C1661.95 585.273 1665.1 590.223 1669.03 594.66C1672.95 598.927 1677.48 602.425 1682.6 605.156C1687.72 607.716 1692.92 608.996 1698.21 608.996Z"
          fill="#404040"/>
</svg>
