<svg width="180" height="180" viewBox="0 0 180 180" fill="none" xmlns="http://www.w3.org/2000/svg">
<rect width="180" height="180" fill="#404040"/>
<path d="M84.8306 142.225C83.3499 142.995 81.499 143.82 79.2779 144.7C77.0568 145.58 74.5184 146.35 71.6626 147.01C68.9127 147.67 66.057 148 63.0955 148C59.4994 148 56.1678 147.34 53.1005 146.02C50.0333 144.7 47.5478 142.61 45.6439 139.75C43.8459 136.78 42.9469 132.984 42.9469 128.364V74.4068H32V60.3812H42.9469V32H60.3984V60.3812H78.4846V74.4068H60.3984V122.589C60.61 125.559 61.509 127.759 63.0955 129.189C64.7878 130.619 66.8502 131.334 69.2829 131.334C71.7155 131.334 74.0424 130.894 76.2635 130.014C78.4846 129.134 80.124 128.419 81.1817 127.869L84.8306 142.225Z" fill="#F5F5F5"/>
<path d="M68.992 114.559C68.992 109.058 70.4728 104.273 73.4342 100.203C76.5015 96.0228 80.6793 92.8326 85.9676 90.6325C91.256 88.3224 97.3905 87.1674 104.371 87.1674C108.073 87.1674 111.828 87.4424 115.635 87.9924C119.549 88.5424 122.986 89.4225 125.948 90.6325V85.1873C125.948 79.137 124.202 74.4068 120.712 70.9967C117.222 67.5865 112.198 65.8815 105.64 65.8815C100.987 65.8815 96.5972 66.7615 92.4723 68.5216C88.3474 70.1716 83.9581 72.5368 79.3043 75.6169L73.4342 63.4064C78.9341 59.5562 84.434 56.6961 89.9339 54.826C95.5395 52.9559 101.41 52.0209 107.544 52.0209C118.65 52.0209 127.375 55.101 133.721 61.2613C140.173 67.3115 143.399 75.9469 143.399 87.1674V119.344C143.399 121.434 143.716 122.919 144.351 123.799C145.091 124.679 146.308 125.174 148 125.284V139.805C146.413 140.135 144.986 140.355 143.716 140.465C142.447 140.575 141.39 140.63 140.543 140.63C136.842 140.63 134.039 139.695 132.135 137.825C130.231 135.954 129.121 133.754 128.803 131.224L128.327 126.274C124.731 131.114 120.13 134.854 114.525 137.495C108.919 140.135 103.261 141.455 97.5491 141.455C92.0492 141.455 87.1311 140.3 82.7946 137.99C78.4582 135.569 75.0736 132.324 72.641 128.254C70.2083 124.184 68.992 119.619 68.992 114.559ZM121.823 119.839C123.092 118.409 124.097 116.979 124.837 115.549C125.577 114.119 125.948 112.853 125.948 111.753V101.853C122.986 100.643 119.866 99.7629 116.587 99.2129C113.308 98.5529 110.083 98.2229 106.91 98.2229C100.563 98.2229 95.3809 99.5429 91.3618 102.183C87.4484 104.823 85.4917 108.453 85.4917 113.074C85.4917 115.604 86.1263 118.024 87.3955 120.334C88.7705 122.644 90.6743 124.514 93.1069 125.944C95.6453 127.374 98.7654 128.089 102.467 128.089C106.275 128.089 109.924 127.319 113.414 125.779C116.904 124.239 119.707 122.259 121.823 119.839Z" fill="#F5F5F5"/>
</svg>
